<?xml version="1.0" encoding="us-ascii" standalone="no"?><svg xmlns="http://www.w3.org/2000/svg" xmlns:xlink="http://www.w3.org/1999/xlink" contentStyleType="text/css" height="582px" preserveAspectRatio="none" style="width:599px;height:582px;background:#FFFFFF;" version="1.1" viewBox="0 0 599 582" width="599px" zoomAndPan="magnify"><defs/><g><!--class Matriz--><g id="elem_Matriz"><rect codeLine="1" fill="#F1F1F1" height="80.5938" id="Matriz" rx="2.5" ry="2.5" style="stroke:#181818;stroke-width:0.5;" width="266" x="158" y="354"/><ellipse cx="264.25" cy="370" fill="#ADD1B2" rx="11" ry="11" style="stroke:#181818;stroke-width:1.0;"/><path d="M266.5938,365.6719 C265.6563,365.2344 265.0625,365.0938 264.1875,365.0938 C261.5625,365.0938 259.5625,367.1719 259.5625,369.8906 L259.5625,371.0156 C259.5625,373.5938 261.6719,375.4844 264.5625,375.4844 C265.7813,375.4844 266.9375,375.1875 267.6875,374.6406 C268.2656,374.2344 268.5938,373.7813 268.5938,373.3906 C268.5938,372.9375 268.2031,372.5469 267.7344,372.5469 C267.5156,372.5469 267.3125,372.625 267.125,372.8125 C266.6719,373.2969 266.6719,373.2969 266.4844,373.3906 C266.0625,373.6563 265.375,373.7813 264.6094,373.7813 C262.5625,373.7813 261.2656,372.6875 261.2656,370.9844 L261.2656,369.8906 C261.2656,368.1094 262.5156,366.7969 264.25,366.7969 C264.8281,366.7969 265.4375,366.9531 265.9063,367.2031 C266.3906,367.4844 266.5625,367.7031 266.6563,368.1094 C266.7188,368.5156 266.75,368.6406 266.8906,368.7656 C267.0313,368.9063 267.2656,369.0156 267.4844,369.0156 C267.75,369.0156 268.0156,368.875 268.1875,368.6563 C268.2969,368.5 268.3281,368.3125 268.3281,367.8906 L268.3281,366.4688 C268.3281,366.0313 268.3125,365.9063 268.2188,365.75 C268.0625,365.4844 267.7813,365.3438 267.4844,365.3438 C267.1875,365.3438 266.9844,365.4375 266.7656,365.75 L266.5938,365.6719 Z " fill="#000000"/><text fill="#000000" font-family="sans-serif" font-size="14" lengthAdjust="spacing" textLength="45" x="284.75" y="374.8467">Matriz</text><line style="stroke:#181818;stroke-width:0.5;" x1="159" x2="423" y1="386" y2="386"/><rect fill="none" height="6" style="stroke:#C82930;stroke-width:1.0;" width="6" x="166" y="396.6484"/><text fill="#000000" font-family="sans-serif" font-size="14" lengthAdjust="spacing" textLength="178" x="178" y="402.9951">elementos: List[List[int]]</text><line style="stroke:#181818;stroke-width:0.5;" x1="159" x2="423" y1="410.2969" y2="410.2969"/><ellipse cx="169" cy="423.9453" fill="#84BE84" rx="3" ry="3" style="stroke:#038048;stroke-width:1.0;"/><text fill="#000000" font-family="sans-serif" font-size="14" lengthAdjust="spacing" textLength="240" x="178" y="427.292">__init__(elementos: List[List[int]])</text></g><!--class Transpuesta--><g id="elem_Transpuesta"><rect codeLine="6" fill="#F1F1F1" height="80.5938" id="Transpuesta" rx="2.5" ry="2.5" style="stroke:#181818;stroke-width:0.5;" width="266" x="7" y="495"/><ellipse cx="91.75" cy="511" fill="#ADD1B2" rx="11" ry="11" style="stroke:#181818;stroke-width:1.0;"/><path d="M94.0938,506.6719 C93.1563,506.2344 92.5625,506.0938 91.6875,506.0938 C89.0625,506.0938 87.0625,508.1719 87.0625,510.8906 L87.0625,512.0156 C87.0625,514.5938 89.1719,516.4844 92.0625,516.4844 C93.2813,516.4844 94.4375,516.1875 95.1875,515.6406 C95.7656,515.2344 96.0938,514.7813 96.0938,514.3906 C96.0938,513.9375 95.7031,513.5469 95.2344,513.5469 C95.0156,513.5469 94.8125,513.625 94.625,513.8125 C94.1719,514.2969 94.1719,514.2969 93.9844,514.3906 C93.5625,514.6563 92.875,514.7813 92.1094,514.7813 C90.0625,514.7813 88.7656,513.6875 88.7656,511.9844 L88.7656,510.8906 C88.7656,509.1094 90.0156,507.7969 91.75,507.7969 C92.3281,507.7969 92.9375,507.9531 93.4063,508.2031 C93.8906,508.4844 94.0625,508.7031 94.1563,509.1094 C94.2188,509.5156 94.25,509.6406 94.3906,509.7656 C94.5313,509.9063 94.7656,510.0156 94.9844,510.0156 C95.25,510.0156 95.5156,509.875 95.6875,509.6563 C95.7969,509.5 95.8281,509.3125 95.8281,508.8906 L95.8281,507.4688 C95.8281,507.0313 95.8125,506.9063 95.7188,506.75 C95.5625,506.4844 95.2813,506.3438 94.9844,506.3438 C94.6875,506.3438 94.4844,506.4375 94.2656,506.75 L94.0938,506.6719 Z " fill="#000000"/><text fill="#000000" font-family="sans-serif" font-size="14" lengthAdjust="spacing" textLength="88" x="112.25" y="515.8467">Transpuesta</text><line style="stroke:#181818;stroke-width:0.5;" x1="8" x2="272" y1="527" y2="527"/><line style="stroke:#181818;stroke-width:0.5;" x1="8" x2="272" y1="535" y2="535"/><ellipse cx="18" cy="548.6484" fill="#84BE84" rx="3" ry="3" style="stroke:#038048;stroke-width:1.0;"/><text fill="#000000" font-family="sans-serif" font-size="14" lengthAdjust="spacing" textLength="240" x="27" y="551.9951">__init__(elementos: List[List[int]])</text><ellipse cx="18" cy="564.9453" fill="#84BE84" rx="3" ry="3" style="stroke:#038048;stroke-width:1.0;"/><text fill="#000000" font-family="sans-serif" font-size="14" lengthAdjust="spacing" textLength="150" x="27" y="568.292">transpuesta(): Matriz</text></g><!--class Imprimir--><g id="elem_Imprimir"><rect codeLine="11" fill="#F1F1F1" height="80.5938" id="Imprimir" rx="2.5" ry="2.5" style="stroke:#181818;stroke-width:0.5;" width="266" x="326" y="495"/><ellipse cx="423.75" cy="511" fill="#ADD1B2" rx="11" ry="11" style="stroke:#181818;stroke-width:1.0;"/><path d="M426.0938,506.6719 C425.1563,506.2344 424.5625,506.0938 423.6875,506.0938 C421.0625,506.0938 419.0625,508.1719 419.0625,510.8906 L419.0625,512.0156 C419.0625,514.5938 421.1719,516.4844 424.0625,516.4844 C425.2813,516.4844 426.4375,516.1875 427.1875,515.6406 C427.7656,515.2344 428.0938,514.7813 428.0938,514.3906 C428.0938,513.9375 427.7031,513.5469 427.2344,513.5469 C427.0156,513.5469 426.8125,513.625 426.625,513.8125 C426.1719,514.2969 426.1719,514.2969 425.9844,514.3906 C425.5625,514.6563 424.875,514.7813 424.1094,514.7813 C422.0625,514.7813 420.7656,513.6875 420.7656,511.9844 L420.7656,510.8906 C420.7656,509.1094 422.0156,507.7969 423.75,507.7969 C424.3281,507.7969 424.9375,507.9531 425.4063,508.2031 C425.8906,508.4844 426.0625,508.7031 426.1563,509.1094 C426.2188,509.5156 426.25,509.6406 426.3906,509.7656 C426.5313,509.9063 426.7656,510.0156 426.9844,510.0156 C427.25,510.0156 427.5156,509.875 427.6875,509.6563 C427.7969,509.5 427.8281,509.3125 427.8281,508.8906 L427.8281,507.4688 C427.8281,507.0313 427.8125,506.9063 427.7188,506.75 C427.5625,506.4844 427.2813,506.3438 426.9844,506.3438 C426.6875,506.3438 426.4844,506.4375 426.2656,506.75 L426.0938,506.6719 Z " fill="#000000"/><text fill="#000000" font-family="sans-serif" font-size="14" lengthAdjust="spacing" textLength="62" x="444.25" y="515.8467">Imprimir</text><line style="stroke:#181818;stroke-width:0.5;" x1="327" x2="591" y1="527" y2="527"/><line style="stroke:#181818;stroke-width:0.5;" x1="327" x2="591" y1="535" y2="535"/><ellipse cx="337" cy="548.6484" fill="#84BE84" rx="3" ry="3" style="stroke:#038048;stroke-width:1.0;"/><text fill="#000000" font-family="sans-serif" font-size="14" lengthAdjust="spacing" textLength="240" x="346" y="551.9951">__init__(elementos: List[List[int]])</text><ellipse cx="337" cy="564.9453" fill="#84BE84" rx="3" ry="3" style="stroke:#038048;stroke-width:1.0;"/><text fill="#000000" font-family="sans-serif" font-size="14" lengthAdjust="spacing" textLength="111" x="346" y="568.292">imprimir(): void</text></g><!--class Lanzador--><g id="elem_Lanzador"><rect codeLine="16" fill="#F1F1F1" height="145.7813" id="Lanzador" rx="2.5" ry="2.5" style="stroke:#181818;stroke-width:0.5;" width="204" x="189" y="148"/><ellipse cx="254.25" cy="164" fill="#ADD1B2" rx="11" ry="11" style="stroke:#181818;stroke-width:1.0;"/><path d="M256.5938,159.6719 C255.6563,159.2344 255.0625,159.0938 254.1875,159.0938 C251.5625,159.0938 249.5625,161.1719 249.5625,163.8906 L249.5625,165.0156 C249.5625,167.5938 251.6719,169.4844 254.5625,169.4844 C255.7813,169.4844 256.9375,169.1875 257.6875,168.6406 C258.2656,168.2344 258.5938,167.7813 258.5938,167.3906 C258.5938,166.9375 258.2031,166.5469 257.7344,166.5469 C257.5156,166.5469 257.3125,166.625 257.125,166.8125 C256.6719,167.2969 256.6719,167.2969 256.4844,167.3906 C256.0625,167.6563 255.375,167.7813 254.6094,167.7813 C252.5625,167.7813 251.2656,166.6875 251.2656,164.9844 L251.2656,163.8906 C251.2656,162.1094 252.5156,160.7969 254.25,160.7969 C254.8281,160.7969 255.4375,160.9531 255.9063,161.2031 C256.3906,161.4844 256.5625,161.7031 256.6563,162.1094 C256.7188,162.5156 256.75,162.6406 256.8906,162.7656 C257.0313,162.9063 257.2656,163.0156 257.4844,163.0156 C257.75,163.0156 258.0156,162.875 258.1875,162.6563 C258.2969,162.5 258.3281,162.3125 258.3281,161.8906 L258.3281,160.4688 C258.3281,160.0313 258.3125,159.9063 258.2188,159.75 C258.0625,159.4844 257.7813,159.3438 257.4844,159.3438 C257.1875,159.3438 256.9844,159.4375 256.7656,159.75 L256.5938,159.6719 Z " fill="#000000"/><text fill="#000000" font-family="sans-serif" font-size="14" lengthAdjust="spacing" textLength="65" x="274.75" y="168.8467">Lanzador</text><line style="stroke:#181818;stroke-width:0.5;" x1="190" x2="392" y1="180" y2="180"/><rect fill="none" height="6" style="stroke:#C82930;stroke-width:1.0;" width="6" x="197" y="190.6484"/><text fill="#000000" font-family="sans-serif" font-size="14" lengthAdjust="spacing" textLength="178" x="209" y="196.9951">elementos: List[List[int]]</text><rect fill="none" height="6" style="stroke:#C82930;stroke-width:1.0;" width="6" x="197" y="206.9453"/><text fill="#000000" font-family="sans-serif" font-size="14" lengthAdjust="spacing" textLength="90" x="209" y="213.292">can_filas: int</text><rect fill="none" height="6" style="stroke:#C82930;stroke-width:1.0;" width="6" x="197" y="223.2422"/><text fill="#000000" font-family="sans-serif" font-size="14" lengthAdjust="spacing" textLength="128" x="209" y="229.5889">can_columnas: int</text><line style="stroke:#181818;stroke-width:0.5;" x1="190" x2="392" y1="236.8906" y2="236.8906"/><ellipse cx="200" cy="250.5391" fill="#84BE84" rx="3" ry="3" style="stroke:#038048;stroke-width:1.0;"/><text fill="#000000" font-family="sans-serif" font-size="14" lengthAdjust="spacing" textLength="62" x="209" y="253.8857">__init__()</text><ellipse cx="200" cy="266.8359" fill="#84BE84" rx="3" ry="3" style="stroke:#038048;stroke-width:1.0;"/><text fill="#000000" font-family="sans-serif" font-size="14" lengthAdjust="spacing" textLength="140" x="209" y="270.1826">crear_matriz(): void</text><ellipse cx="200" cy="283.1328" fill="#84BE84" rx="3" ry="3" style="stroke:#038048;stroke-width:1.0;"/><text fill="#000000" font-family="sans-serif" font-size="14" lengthAdjust="spacing" textLength="92" x="209" y="286.4795">lanzar(): void</text></g><!--class Main--><g id="elem_Main"><rect codeLine="25" fill="#F1F1F1" height="80.5938" id="Main" rx="2.5" ry="2.5" style="stroke:#181818;stroke-width:0.5;" width="161" x="210.5" y="7"/><ellipse cx="270.25" cy="23" fill="#ADD1B2" rx="11" ry="11" style="stroke:#181818;stroke-width:1.0;"/><path d="M272.5938,18.6719 C271.6563,18.2344 271.0625,18.0938 270.1875,18.0938 C267.5625,18.0938 265.5625,20.1719 265.5625,22.8906 L265.5625,24.0156 C265.5625,26.5938 267.6719,28.4844 270.5625,28.4844 C271.7813,28.4844 272.9375,28.1875 273.6875,27.6406 C274.2656,27.2344 274.5938,26.7813 274.5938,26.3906 C274.5938,25.9375 274.2031,25.5469 273.7344,25.5469 C273.5156,25.5469 273.3125,25.625 273.125,25.8125 C272.6719,26.2969 272.6719,26.2969 272.4844,26.3906 C272.0625,26.6563 271.375,26.7813 270.6094,26.7813 C268.5625,26.7813 267.2656,25.6875 267.2656,23.9844 L267.2656,22.8906 C267.2656,21.1094 268.5156,19.7969 270.25,19.7969 C270.8281,19.7969 271.4375,19.9531 271.9063,20.2031 C272.3906,20.4844 272.5625,20.7031 272.6563,21.1094 C272.7188,21.5156 272.75,21.6406 272.8906,21.7656 C273.0313,21.9063 273.2656,22.0156 273.4844,22.0156 C273.75,22.0156 274.0156,21.875 274.1875,21.6563 C274.2969,21.5 274.3281,21.3125 274.3281,20.8906 L274.3281,19.4688 C274.3281,19.0313 274.3125,18.9063 274.2188,18.75 C274.0625,18.4844 273.7813,18.3438 273.4844,18.3438 C273.1875,18.3438 272.9844,18.4375 272.7656,18.75 L272.5938,18.6719 Z " fill="#000000"/><text fill="#000000" font-family="sans-serif" font-size="14" lengthAdjust="spacing" textLength="33" x="290.75" y="27.8467">Main</text><line style="stroke:#181818;stroke-width:0.5;" x1="211.5" x2="370.5" y1="39" y2="39"/><rect fill="none" height="6" style="stroke:#C82930;stroke-width:1.0;" width="6" x="218.5" y="49.6484"/><text fill="#000000" font-family="sans-serif" font-size="14" lengthAdjust="spacing" textLength="135" x="230.5" y="55.9951">lanzador: Lanzador</text><line style="stroke:#181818;stroke-width:0.5;" x1="211.5" x2="370.5" y1="63.2969" y2="63.2969"/><ellipse cx="221.5" cy="76.9453" fill="#84BE84" rx="3" ry="3" style="stroke:#038048;stroke-width:1.0;"/><text fill="#000000" font-family="sans-serif" font-size="14" lengthAdjust="spacing" textLength="62" x="230.5" y="80.292">__init__()</text></g><!--link Matriz to Transpuesta--><g id="link_Matriz_Transpuesta"><path codeLine="30" d="M247.729,435.332 C227.424,454.024 207.7034,472.1768 187.4304,490.8391 " fill="none" id="Matriz-to-Transpuesta" style="stroke:#181818;stroke-width:1.0;"/><polygon fill="#181818" points="183.016,494.9028,192.3467,491.7502,186.6946,491.5164,186.9285,485.8644,183.016,494.9028" style="stroke:#181818;stroke-width:1.0;"/></g><!--link Matriz to Imprimir--><g id="link_Matriz_Imprimir"><path codeLine="31" d="M339.142,435.332 C361.734,454.024 383.9632,472.4157 406.5192,491.078 " fill="none" id="Matriz-to-Imprimir" style="stroke:#181818;stroke-width:1.0;"/><polygon fill="#181818" points="411.142,494.9028,406.7576,486.0837,407.2896,491.7154,401.6578,492.2474,411.142,494.9028" style="stroke:#181818;stroke-width:1.0;"/></g><!--link Lanzador to Matriz--><g id="link_Lanzador_Matriz"><path codeLine="32" d="M291,294.234 C291,314.557 291,329.918 291,347.597 " fill="none" id="Lanzador-to-Matriz" style="stroke:#181818;stroke-width:1.0;"/><polygon fill="#181818" points="291,353.597,295,344.597,291,348.597,287,344.597,291,353.597" style="stroke:#181818;stroke-width:1.0;"/></g><!--link Lanzador to Imprimir--><g id="link_Lanzador_Imprimir"><path codeLine="33" d="M393.252,292.149 C412.449,310.079 430.179,330.909 442,354 C464.663,398.267 466.2078,450.6601 463.7778,488.8711 " fill="none" id="Lanzador-to-Imprimir" style="stroke:#181818;stroke-width:1.0;"/><polygon fill="#181818" points="463.397,494.859,467.9601,486.131,463.7143,489.8691,459.9763,485.6233,463.397,494.859" style="stroke:#181818;stroke-width:1.0;"/></g><!--link Lanzador to Transpuesta--><g id="link_Lanzador_Transpuesta"><path codeLine="34" d="M188.636,289.91 C168.927,308.2 151.013,329.746 140,354 C119.595,398.94 123.2641,450.9937 129.9031,488.9463 " fill="none" id="Lanzador-to-Transpuesta" style="stroke:#181818;stroke-width:1.0;"/><polygon fill="#181818" points="130.937,494.8566,133.3264,485.302,130.0754,489.9314,125.446,486.6805,130.937,494.8566" style="stroke:#181818;stroke-width:1.0;"/></g><!--link Main to Lanzador--><g id="link_Main_Lanzador"><path codeLine="35" d="M291,88.277 C291,105.989 291,121.416 291,141.797 " fill="none" id="Main-to-Lanzador" style="stroke:#181818;stroke-width:1.0;"/><polygon fill="#181818" points="291,147.797,295,138.797,291,142.797,287,138.797,291,147.797" style="stroke:#181818;stroke-width:1.0;"/></g><!--SRC=[bL7B2i8m4BpdA_RO8ls17hmBxSsRI5ZI20j9AadgeUA_czJq9HNg9OVPcTdPYL3e7DJeBVNmP005I2MrDBvr9LJa_6LuoFZhDOmFm3aPyfndltavUp4c1kUpHUFkdNGU1_kT-aZqipJBovHnTZxfkoLDzbzRIhhe-MYfcHqhD3qshTtJGm423RzH49OGm0aIhUgqcT55iiz-OILQheThfWnneEBwZLWraacHL4fOJbc_DmHL-ioYE2xRNy9ZTMowEAAfu1MspLpRXdGH71bl]--></g></svg>